<svg xmlns="http://www.w3.org/2000/svg" width="27.971" height="27.971" viewBox="0 0 27.971 27.971">
  <g id="サーチアイコン" transform="translate(-0.002 -0.001)">
    <path id="Path_44" data-name="Path 44" d="M27.059,23.14s-3.744-3.275-4.64-4.17c-1.315-1.308-1.841-1.938-1.376-3a11.088,11.088,0,1,0-5.073,5.072c1.063-.464,1.695.062,3,1.378.9.9,4.169,4.64,4.169,4.64,1.7,1.7,3.005.653,3.79-.131S28.758,24.838,27.059,23.14ZM15.627,15.626a6.419,6.419,0,1,1,0-9.077A6.421,6.421,0,0,1,15.627,15.626Z" transform="translate(0 0)" fill="#fff"/>
  </g>
</svg>
